<svg xmlns="http://www.w3.org/2000/svg" xmlns:xlink="http://www.w3.org/1999/xlink" width="512" height="512" style=""><rect id="backgroundrect" width="100%" height="100%" x="0" y="0" fill="none" stroke="none"/><linearGradient id="a" x1="0" x2="1" y1="0.5" y2="0.5"><stop offset="0" stop-color="#31d8ff"/><stop offset="1" stop-color="#ff80ff"/></linearGradient><g class="currentLayer" style=""><title>Layer 1</title><path d="m512 256c0 141.386719-114.613281 256-256 256s-256-114.613281-256-256 114.613281-256 256-256 256 114.613281 256 256zm0 0" fill="#fa8a3b" id="svg_1" class="selected" fill-opacity="1"/><g fill="#fff" id="svg_2" class=""><path d="m256 56c-110.28125 0-200 89.71875-200 200s89.71875 200 200 200 200-89.71875 200-200-89.71875-200-200-200zm0 370c-93.738281 0-170-76.261719-170-170s76.261719-170 170-170 170 76.261719 170 170-76.261719 170-170 170zm0 0" id="svg_3"/><path d="m256 150.851562c-47.171875 0-85.550781 38.378907-85.550781 85.550782 0 66.867187 73.75 119.773437 76.890625 121.996094 2.597656 1.832031 5.628906 2.75 8.660156 2.75s6.0625-.917969 8.660156-2.75c3.140625-2.222657 76.890625-55.128907 76.890625-121.996094 0-47.171875-38.378906-85.550782-85.550781-85.550782zm0 176.21875c-17.539062-14.660156-55.550781-51.019531-55.550781-90.667968 0-30.628906 24.917969-55.550782 55.550781-55.550782s55.550781 24.921876 55.550781 55.550782c0 39.65625-38.023437 76.015625-55.550781 90.667968zm0 0" id="svg_4"/><path d="m275.597656 236.402344c0 10.824218-8.773437 19.597656-19.597656 19.597656s-19.597656-8.773438-19.597656-19.597656c0-10.824219 8.773437-19.597656 19.597656-19.597656s19.597656 8.773437 19.597656 19.597656zm0 0" id="svg_5"/></g></g></svg>