<?xml version="1.0" standalone="no"?>
<!DOCTYPE svg PUBLIC "-//W3C//DTD SVG 20010904//EN"
 "http://www.w3.org/TR/2001/REC-SVG-20010904/DTD/svg10.dtd">
<svg version="1.0" xmlns="http://www.w3.org/2000/svg"
 width="1229.000000pt" height="1230.000000pt" viewBox="0 0 1229.000000 1230.000000"
 preserveAspectRatio="xMidYMid meet">
<metadata>
Created by potrace 1.15, written by Peter Selinger 2001-2017
</metadata>
<g transform="translate(0.000000,1230.000000) scale(0.100000,-0.100000)"
fill="#000000" stroke="none">
<path d="M9550 11247 c0 -2 57 -45 128 -95 903 -644 1637 -1560 2065 -2582
246 -587 387 -1153 454 -1820 22 -221 25 -822 5 -1040 -58 -635 -190 -1197
-410 -1750 -761 -1916 -2441 -3316 -4460 -3719 -572 -114 -1222 -145 -1800
-86 -1288 132 -2477 657 -3437 1516 -807 723 -1400 1633 -1733 2660 -133 411
-217 814 -269 1294 -25 234 -25 923 0 1155 111 1024 412 1893 939 2713 382
595 905 1158 1459 1571 178 132 210 158 124 100 -438 -297 -962 -797 -1316
-1254 -249 -321 -438 -624 -638 -1020 -357 -707 -564 -1455 -633 -2285 -16
-192 -15 -716 0 -910 84 -1019 388 -1944 919 -2800 601 -967 1513 -1782 2548
-2276 660 -315 1327 -499 2085 -576 246 -25 881 -25 1127 0 911 93 1721 349
2488 788 702 401 1364 986 1850 1634 446 594 791 1288 990 1987 166 586 237
1094 237 1698 0 602 -71 1112 -237 1698 -223 785 -633 1565 -1154 2197 -293
354 -668 715 -1030 989 -150 113 -301 220 -301 213z"/>
</g>
</svg>
